<svg preserveAspectRatio="xMidYMid meet" viewBox="18.359375 0 342.21875 367" xmlns="http://www.w3.org/2000/svg" version="1.0" style="max-height: 500px" width="342.21875" height="367">

<g stroke="none" fill="#000000" transform="translate(0.000000,367.000000) scale(0.100000,-0.100000)">
<path d="M1820 2875 l0 -795 -910 0 -910 0 0 -50 0 -50 1880 0 1880 0 0 50 0&#10;50 -920 0 -920 0 0 795 0 795 -50 0 -50 0 0 -795z"/>
<path d="M910 1650 l0 -50 455 0 455 0 0 -800 0 -800 50 0 50 0 0 800 0 800&#10;455 0 455 0 0 50 0 50 -960 0 -960 0 0 -50z"/>
</g>
</svg>