<?xml version="1.0" standalone="no"?>
<!DOCTYPE svg PUBLIC "-//W3C//DTD SVG 20010904//EN"
 "http://www.w3.org/TR/2001/REC-SVG-20010904/DTD/svg10.dtd">
<svg version="1.0" xmlns="http://www.w3.org/2000/svg"
 width="135.000000pt" height="264.000000pt" viewBox="0 0 135.000000 264.000000"
 preserveAspectRatio="xMidYMid meet">

<g transform="translate(0.000000,264.000000) scale(0.100000,-0.100000)"
fill="#000000" stroke="none">
<path d="M660 2315 l0 -325 38 -22 c20 -13 65 -37 99 -53 34 -17 62 -32 63
-35 0 -3 -92 -51 -205 -108 -165 -82 -205 -106 -205 -122 0 -16 40 -40 205
-122 113 -57 205 -105 205 -108 0 -3 -92 -51 -205 -108 -165 -82 -205 -106
-205 -122 0 -16 40 -40 205 -122 113 -57 205 -105 205 -108 0 -3 -92 -51 -205
-108 -165 -82 -205 -106 -205 -122 0 -16 24 -32 105 -72 l105 -53 0 -302 c0
-295 1 -303 20 -303 19 0 20 9 22 301 2 165 0 308 -3 317 -4 9 -48 37 -98 62
-50 25 -91 47 -91 50 0 3 92 51 205 108 165 82 205 106 205 122 0 16 -40 40
-205 122 -113 57 -205 105 -205 108 0 3 92 51 205 108 165 82 205 106 205 122
0 16 -40 40 -205 122 -113 57 -205 105 -205 108 0 3 92 51 205 108 164 81 205
106 205 122 0 15 -25 32 -109 75 l-109 54 0 288 c0 370 2 343 -22 343 -20 0
-20 -7 -20 -325z"/>
</g>
</svg>
